<svg width="40" height="40" viewBox="0 0 40 40" fill="none" xmlns="http://www.w3.org/2000/svg">
<g clip-path="url(#clip0_136_116)">
<path fill-rule="evenodd" clip-rule="evenodd" d="M20.0002 3.33301C29.2052 3.33301 36.6668 10.7947 36.6668 19.9997C36.6668 29.2047 29.2052 36.6663 20.0002 36.6663C10.7952 36.6663 3.3335 29.2047 3.3335 19.9997C3.3335 10.7947 10.7952 3.33301 20.0002 3.33301ZM20.0002 6.66634C16.4639 6.66634 13.0726 8.0711 10.5721 10.5716C8.07159 13.0721 6.66683 16.4635 6.66683 19.9997C6.66683 23.5359 8.07159 26.9273 10.5721 29.4278C13.0726 31.9282 16.4639 33.333 20.0002 33.333C23.5364 33.333 26.9278 31.9282 29.4283 29.4278C31.9287 26.9273 33.3335 23.5359 33.3335 19.9997C33.3335 16.4635 31.9287 13.0721 29.4283 10.5716C26.9278 8.0711 23.5364 6.66634 20.0002 6.66634ZM16.6668 9.99967C16.9656 9.99959 17.259 10.0798 17.5161 10.232C17.7733 10.3842 17.9848 10.6027 18.1285 10.8647L18.2135 11.048L20.4635 16.6663H22.5002V11.6663C22.5006 11.2415 22.6633 10.833 22.9549 10.5241C23.2465 10.2152 23.6451 10.0293 24.0692 10.0044C24.4932 9.97949 24.9108 10.1175 25.2365 10.3901C25.5623 10.6628 25.7717 11.0495 25.8218 11.4713L25.8335 11.6663V16.6663H26.6668C27.0916 16.6668 27.5002 16.8295 27.8091 17.1211C28.118 17.4127 28.3039 17.8113 28.3288 18.2353C28.3537 18.6594 28.2157 19.077 27.9431 19.4027C27.6704 19.7285 27.2837 19.9378 26.8618 19.988L26.6668 19.9997H25.8335V21.6663H26.6668C27.0916 21.6668 27.5002 21.8295 27.8091 22.1211C28.118 22.4127 28.3039 22.8113 28.3288 23.2353C28.3537 23.6594 28.2157 24.077 27.9431 24.4027C27.6704 24.7285 27.2837 24.9378 26.8618 24.988L26.6668 24.9997H25.8335V28.333C25.8334 28.7412 25.6836 29.1352 25.4123 29.4403C25.141 29.7454 24.7672 29.9402 24.3618 29.988L24.1668 29.9997H23.3335C23.0347 29.9998 22.7414 29.9195 22.4842 29.7673C22.2271 29.6152 22.0156 29.3966 21.8718 29.1347L21.7868 28.9513L20.2052 24.9997H17.5002V28.333C17.4997 28.7578 17.337 29.1664 17.0454 29.4753C16.7538 29.7842 16.3552 29.9701 15.9312 29.995C15.5071 30.0199 15.0895 29.8819 14.7638 29.6092C14.438 29.3366 14.2287 28.9498 14.1785 28.528L14.1668 28.333V24.9997H13.3335C12.9087 24.9992 12.5001 24.8365 12.1912 24.5449C11.8823 24.2533 11.6964 23.8548 11.6715 23.4307C11.6466 23.0066 11.7846 22.589 12.0573 22.2633C12.3299 21.9375 12.7167 21.7282 13.1385 21.678L13.3335 21.6663H14.1668V19.9997H13.3335C12.9087 19.9992 12.5001 19.8365 12.1912 19.5449C11.8823 19.2533 11.6964 18.8548 11.6715 18.4307C11.6466 18.0066 11.7846 17.589 12.0573 17.2633C12.3299 16.9375 12.7167 16.7282 13.1385 16.678L13.3335 16.6663H14.1668V11.6663C14.1669 11.2581 14.3168 10.8641 14.588 10.5591C14.8593 10.254 15.2331 10.0591 15.6385 10.0113L15.8335 9.99967H16.6668ZM18.2052 19.9997H17.5002V21.6663H18.8718L18.2052 19.9997ZM22.5002 19.9997H21.7952L22.4618 21.6663H22.5002V19.9997Z" fill="#6729E5"/>
</g>
<defs>
<clipPath id="clip0_136_116">
<rect width="40" height="40" fill="white"/>
</clipPath>
</defs>
</svg>
