<svg width="17" height="16" viewBox="0 0 17 16" fill="none" xmlns="http://www.w3.org/2000/svg">
<g clip-path="url(#clip0_88_1023)">
<path fill-rule="evenodd" clip-rule="evenodd" d="M6.6033 1.93187C7.0669 1.53683 7.65177 1.3124 8.26063 1.2959C8.86949 1.27941 9.46565 1.47184 9.94996 1.8412L10.0633 1.93187L10.314 2.1452C10.4964 2.30096 10.7175 2.4046 10.954 2.4452L11.0726 2.45987L11.4013 2.48653C12.0101 2.53511 12.5839 2.79123 13.0265 3.21206C13.4692 3.63289 13.754 4.19292 13.8333 4.79853L13.8473 4.93187L13.874 5.2612C13.8928 5.50008 13.9758 5.72946 14.114 5.9252L14.1873 6.01987L14.402 6.27053C14.797 6.73414 15.0214 7.31901 15.0379 7.92787C15.0544 8.53673 14.862 9.13289 14.4926 9.6172L14.402 9.73054L14.188 9.9812C14.0322 10.1637 13.9286 10.3848 13.888 10.6212L13.8733 10.7399L13.8473 11.0685C13.7987 11.6774 13.5426 12.2511 13.1218 12.6938C12.7009 13.1364 12.1409 13.4212 11.5353 13.5005L11.4013 13.5145L11.0726 13.5412C10.8338 13.5601 10.6044 13.643 10.4086 13.7812L10.314 13.8552L10.0626 14.0685C9.59911 14.4637 9.01428 14.6882 8.40542 14.7048C7.79655 14.7215 7.20035 14.5291 6.71596 14.1599L6.6033 14.0692L6.35263 13.8552C6.17017 13.6994 5.94907 13.5958 5.71263 13.5552L5.59396 13.5412L5.2653 13.5145C4.65645 13.466 4.08273 13.2098 3.64006 12.789C3.19739 12.3682 2.9126 11.8081 2.8333 11.2025L2.8193 11.0692L2.79263 10.7399C2.77375 10.501 2.69084 10.2716 2.55263 10.0759L2.47863 9.9812L2.26463 9.72987C1.86959 9.26627 1.64516 8.6814 1.62866 8.07254C1.61217 7.46367 1.8046 6.86751 2.17396 6.3832L2.26463 6.27053L2.47796 6.01987C2.63372 5.83741 2.73736 5.61631 2.77796 5.37987L2.79263 5.2612L2.8193 4.93253C2.86788 4.32369 3.12399 3.74997 3.54482 3.3073C3.96565 2.86463 4.52569 2.57983 5.1313 2.50053L5.26463 2.48653L5.59396 2.45987C5.83284 2.44099 6.06222 2.35808 6.25796 2.21987L6.35263 2.14587L6.6033 1.93187ZM9.99996 8.6672C9.73475 8.6672 9.48039 8.77256 9.29286 8.96009C9.10532 9.14763 8.99996 9.40199 8.99996 9.6672C8.99996 9.93242 9.10532 10.1868 9.29286 10.3743C9.48039 10.5618 9.73475 10.6672 9.99996 10.6672C10.2652 10.6672 10.5195 10.5618 10.7071 10.3743C10.8946 10.1868 11 9.93242 11 9.6672C11 9.40199 10.8946 9.14763 10.7071 8.96009C10.5195 8.77256 10.2652 8.6672 9.99996 8.6672ZM9.86196 5.5292L5.86196 9.5292C5.79829 9.5907 5.7475 9.66426 5.71256 9.7456C5.67762 9.82693 5.65923 9.91441 5.65846 10.0029C5.6577 10.0915 5.67456 10.1792 5.70808 10.2612C5.7416 10.3431 5.79111 10.4175 5.8537 10.4801C5.9163 10.5427 5.99073 10.5922 6.07266 10.6257C6.15459 10.6593 6.24238 10.6761 6.3309 10.6754C6.41942 10.6746 6.5069 10.6562 6.58823 10.6213C6.66957 10.5863 6.74313 10.5355 6.80463 10.4719L10.8046 6.47187C10.9261 6.34613 10.9933 6.17773 10.9917 6.00293C10.9902 5.82814 10.9201 5.66093 10.7965 5.53732C10.6729 5.41372 10.5057 5.3436 10.3309 5.34209C10.1561 5.34057 9.9877 5.40776 9.86196 5.5292ZM6.66663 5.33387C6.40141 5.33387 6.14706 5.43922 5.95952 5.62676C5.77199 5.8143 5.66663 6.06865 5.66663 6.33387C5.66663 6.59908 5.77199 6.85344 5.95952 7.04098C6.14706 7.22851 6.40141 7.33387 6.66663 7.33387C6.93185 7.33387 7.1862 7.22851 7.37374 7.04098C7.56127 6.85344 7.66663 6.59908 7.66663 6.33387C7.66663 6.06865 7.56127 5.8143 7.37374 5.62676C7.1862 5.43922 6.93185 5.33387 6.66663 5.33387Z" fill="#E0B300"/>
</g>
<defs>
<clipPath id="clip0_88_1023">
<rect width="16" height="16" fill="white" transform="translate(0.333252)"/>
</clipPath>
</defs>
</svg>
