<?xml version="1.0" encoding="utf-8"?>
<!-- Generator: Adobe Illustrator 27.5.0, SVG Export Plug-In . SVG Version: 6.00 Build 0)  -->
<svg version="1.1" xmlns="http://www.w3.org/2000/svg" xmlns:xlink="http://www.w3.org/1999/xlink" x="0px" y="0px"
	 viewBox="0 0 3710 3710" style="enable-background:new 0 0 3710 3710;" xml:space="preserve">
<g id="Background">
	<g>
		<g>
			<rect style="fill:#FFFFFF;" width="3710" height="3710"/>
		</g>
	</g>
</g>
<g id="Illustration">
	<g>
		<path style="fill:#F4F7FA;" d="M1557.867,440.301c0,0-979.491,42.567-1035.065,904.011
			c-55.574,861.443-312.604,1681.075,312.604,1729.999s2090.971,143.961,2299.374-369.248S3447.383,259.585,1557.867,440.301z"/>
		<g>
			<defs>
				<rect id="SVGID_1_" x="1374.43" y="1083.23" width="1892.127" height="1859.814"/>
			</defs>
			<clipPath id="SVGID_00000154399400907355879940000014431749606069436080_">
				<use xlink:href="#SVGID_1_"  style="overflow:visible;"/>
			</clipPath>
			<g style="clip-path:url(#SVGID_00000154399400907355879940000014431749606069436080_);">
				<g>
					<defs>
						<path id="SVGID_00000021112887340138531120000008850451619938315908_" d="M1746.121,3127.595l221.096,180.859
							c0,0,129.339-85.91,137.063-214.887c15.76-263.153,232.575-230.188,325.339-230.75
							c139.896-0.846,262.827-66.121,167.727-216.111s187.252-254.689,413.369-221.618
							c221.271,32.363,403.345-364.972-69.489-481.526c-282.375-69.606-420.714,190.954-520.15,304.968
							c-99.437,114.014-278.72-16.478-329.089,180.967c-43.024,168.654-15.563,339.757-152.549,367.847
							C1802.452,2825.434,1723.016,2917.588,1746.121,3127.595z"/>
					</defs>
					
						<linearGradient id="SVGID_00000043435125169456129380000000702518748230008973_" gradientUnits="userSpaceOnUse" x1="-228.9626" y1="2859.7913" x2="1377.8717" y2="2859.7913" gradientTransform="matrix(0.9902 -0.1398 0.1398 0.9902 1515.5154 -143.6297)">
						<stop  offset="0" style="stop-color:#FFC444"/>
						<stop  offset="0.9964" style="stop-color:#F36F56"/>
					</linearGradient>
					
						<use xlink:href="#SVGID_00000021112887340138531120000008850451619938315908_"  style="overflow:visible;fill:url(#SVGID_00000043435125169456129380000000702518748230008973_);"/>
					<clipPath id="SVGID_00000162337025670070160780000012471521359829690538_">
						<use xlink:href="#SVGID_00000021112887340138531120000008850451619938315908_"  style="overflow:visible;"/>
					</clipPath>
					
						<linearGradient id="SVGID_00000034089408245752951280000016157079169302184638_" gradientUnits="userSpaceOnUse" x1="2924.2798" y1="1952.8445" x2="1910.3459" y2="3339.1279" gradientTransform="matrix(0.9913 0.1317 -0.1317 0.9913 414.5306 -383.9031)">
						<stop  offset="0" style="stop-color:#FF9085"/>
						<stop  offset="1" style="stop-color:#FB6FBB"/>
					</linearGradient>
					
						<path style="clip-path:url(#SVGID_00000162337025670070160780000012471521359829690538_);fill:url(#SVGID_00000034089408245752951280000016157079169302184638_);" d="
						M1746.121,3127.595l221.096,180.859c0,0,129.339-85.91,137.063-214.887c15.76-263.153,232.575-230.188,325.339-230.75
						c139.896-0.846,246.453-62.634,185.865-208.818c-68.552-165.4,169.113-261.982,395.23-228.91
						c221.271,32.363,403.345-364.972-69.489-481.526c-282.375-69.606-420.714,190.954-520.15,304.968
						c-99.437,114.014-278.72-16.478-329.089,180.967c-43.024,168.654-15.563,339.757-152.549,367.847
						C1802.452,2825.434,1723.016,2917.588,1746.121,3127.595z"/>
					<g style="opacity:0.9;clip-path:url(#SVGID_00000162337025670070160780000012471521359829690538_);">
						<path style="fill:#BEB8F2;" d="M1825.941,3227.575l5.242,2.865c1.678-3.434,170.854-346.587,435.549-633.284
							c243.852-264.126,621.036-532.984,1033.118-313.897l2.651-5.575c-183.44-97.529-375.323-108.146-570.321-31.562
							c-155.77,61.178-313.818,177.846-469.755,346.763C1997.145,2880.253,1827.624,3224.134,1825.941,3227.575z"/>
						<path style="fill:#BEB8F2;" d="M2652.002,2281.847l5.08,3.178c100.039-178.747,328.138-362.312,330.43-364.146l-3.557-4.979
							C2981.653,1917.742,2752.628,2102.052,2652.002,2281.847z"/>
						<path style="fill:#BEB8F2;" d="M2783.251,2234.585c232.838,24.991,343.309,194.756,344.396,196.467l4.896-3.48
							c-1.102-1.74-113.004-173.896-348.696-199.196L2783.251,2234.585z"/>
						<path style="fill:#BEB8F2;" d="M2103.339,2794.56c222.388-190.057,563.431-2.308,566.609-0.185l3.468-5.042
							c-2.932-2.396-349.422-191.372-573.784,0.374L2103.339,2794.56z"/>
						<path style="fill:#BEB8F2;" d="M2174.018,2694.758l5.308,2.733c79.894-173.48,1.82-401.681,1.021-403.968l-5.535,2.161
							C2175.602,2297.948,2252.8,2523.701,2174.018,2694.758z"/>
						<path style="fill:#BEB8F2;" d="M1858.928,3177.062c72.976-85.084,247.719-56.782,249.475-56.489l0.928-6.161
							c-7.298-1.232-179.645-29.139-254.773,58.458L1858.928,3177.062z"/>
						<path style="fill:#BEB8F2;" d="M1897.958,3095.23l5.209,2.932c40.358-80.176-3.166-241.871-17.469-295.005
							c-2.021-7.509-3.765-13.991-3.861-15.21l-5.886,0.428c0.112,1.722,1.26,6.035,4.073,16.49
							C1894.164,2857.402,1937.197,3017.275,1897.958,3095.23z"/>
					</g>
				</g>
				<g>
					
						<linearGradient id="SVGID_00000085231690950404758130000010284415842316777866_" gradientUnits="userSpaceOnUse" x1="5045.8765" y1="2145.6792" x2="6016.0605" y2="3742.853" gradientTransform="matrix(-0.9832 0.1826 0.1826 0.9832 7131.73 -1615.2043)">
						<stop  offset="0" style="stop-color:#AA80F9"/>
						<stop  offset="0.9964" style="stop-color:#6165D7"/>
					</linearGradient>
					<path style="fill:url(#SVGID_00000085231690950404758130000010284415842316777866_);" d="M2204.513,3115.364
						c-19.176,1.126-63.542,183.187-141.159,69.621c-19.391-28.373-54.872-132.422-194.57-111.411
						c-27.117,4.078-54.237,8.155-81.354,12.233c-34.49-56.184-56.586-115.526,20.822-153.981
						c120.213-59.719,80.734-271.603,30.734-339.837c-61.883-84.453-201.677-283.924-17.348-378.996
						c153.453-79.149,269.368-100.74,240.881-301.02c-28.487-200.283,61.344-345.316,254.351-369.104
						c203.111-25.034,316.905-307.456,498.222-253.929c315.933,93.274,144.453,578.353-178.347,769.847
						c-322.798,191.493-99.18,272.517-57.118,432.919c3.061,15.112,6.641,38.775,5.565,67.508
						c-6.63,176.895-178.347,239.25-279.099,401.904C2168.687,3182.943,2236.818,3113.469,2204.513,3115.364z"/>
					<g>
						<defs>
							<path id="SVGID_00000011748523147890616980000013777426085460923822_" d="M2216.24,3139.901l-459.042,82.137
								c-38.552-56.474-94.488-163.373-3.821-208.415c126.054-62.622,84.656-284.8,32.228-356.35
								c-64.89-88.556-211.476-297.72-18.191-397.412c160.908-82.994,282.455-105.632,252.584-315.645
								c-29.87-210.014,64.325-362.093,266.71-387.037c212.979-26.25,332.301-322.396,522.428-266.266
								c331.285,97.804,151.471,606.451-187.011,807.25c-338.482,200.798-104,285.757-59.894,453.955
								c60.215,229.626-282.695,242.152-352.26,349.757C2155.436,2986.23,2188.101,3082.496,2216.24,3139.901z"/>
						</defs>
						<clipPath id="SVGID_00000027599323025981100050000004588043944384305077_">
							<use xlink:href="#SVGID_00000011748523147890616980000013777426085460923822_"  style="overflow:visible;"/>
						</clipPath>
						<g style="opacity:0.5;clip-path:url(#SVGID_00000027599323025981100050000004588043944384305077_);">
							<path style="fill:#FCFDFE;" d="M1986.973,3110.506l-10.11-0.063c10.766-697.794,380.17-1389.865,964.057-1806.135
								l6.051,7.601C2365.544,1726.426,1997.694,2415.61,1986.973,3110.506z"/>
							<path style="fill:#FCFDFE;" d="M2027.359,2730.288l-9.939,1.823c-53.208-269.2-339.156-434.244-342.04-435.879l5.258-8.191
								C1683.559,2289.694,1973.31,2456.845,2027.359,2730.288z"/>
							<path style="fill:#FCFDFE;" d="M1992.66,2982.165l-9.627-2.846c89.993-265.382,609.315-395.762,614.552-397.046l2.474,9.237
								C2594.881,2592.781,2080.941,2721.83,1992.66,2982.165z"/>
							<path style="fill:#FCFDFE;" d="M2265.095,2082.479l-9.859-2.054c52.141-215.372-145.792-495.812-147.797-498.62l8.392-5.382
								C2117.862,1579.264,2318.201,1863.128,2265.095,2082.479z"/>
							<path style="fill:#FCFDFE;" d="M2519.648,1708.266l-6.786-7.029c197.423-170.03,556.851-161.938,560.465-161.832
								l-0.379,9.542C3069.38,1548.839,2713.993,1540.883,2519.648,1708.266z"/>
						</g>
					</g>
				</g>
			</g>
		</g>
		<g>
			<g>
				<path style="fill:#BFC8D6;" d="M3295.906,2948.885l-2654.753-22.948v67.897c0,18.429,11.579,34.099,27.261,36.891
					l750.685,133.701c8.909,1.587,17.943,2.008,26.933,1.255l1821.026-152.441c16.257-1.361,28.849-17.08,28.849-36.014V2948.885z"
					/>
				<g>
					<path style="fill:#BFC8D6;" d="M2318.953,2840.077l-1687.31,124.21c-30.193,2.222-54.743-21.395-54.743-52.757V1655.038
						c0-31.362,24.549-56.787,54.743-56.787h1687.31c24.875,0,44.987,22.983,44.987,51.334v1135.845
						C2363.94,2813.781,2343.828,2838.246,2318.953,2840.077z"/>
					<path style="fill:#FFFFFF;" d="M2345.857,2840.077l-1687.31,124.21c-30.194,2.222-54.743-21.395-54.743-52.757V1655.038
						c0-31.362,24.549-56.787,54.743-56.787h1687.31c24.875,0,44.987,22.983,44.987,51.334v1135.845
						C2390.844,2813.781,2370.733,2838.246,2345.857,2840.077z"/>
					<path style="fill:#D8DEE8;" d="M2293.293,2759.998L721.74,2867.891c-24.57,1.687-44.538-17.698-44.538-43.301V1724.53
						c0-25.603,19.967-46.445,44.538-46.551l1571.553-6.775c20.52-0.089,37.118,18.744,37.118,42.065v1001.958
						C2330.411,2738.545,2313.813,2758.59,2293.293,2759.998z"/>
					<path style="fill:#FFFFFF;" d="M1561.794,1632.62c0,11.675-8.685,21.167-19.409,21.201
						c-10.738,0.034-19.451-9.424-19.451-21.125s8.714-21.193,19.451-21.202C1553.109,1611.486,1561.794,1620.944,1561.794,1632.62z
						"/>
					<path style="opacity:0.48;fill:#FFFFFF;" d="M658.542,2964.287l1678.773-123.581l8.543-0.629
						c11.413-0.84,21.791-6.482,29.718-15.041c-120.807-6.611-195.842-49.482-244.245-93.78
						c-97.204-88.96-80.344-176.688-185.166-235.177c-130.742-72.954-233.544,19.487-332.757-71.72
						c-60.147-55.296-30.618-96.531-104.629-179.164c-81.973-91.523-135.342-60.758-217.724-143.129
						c-104.165-104.153-52.068-185.187-141.794-259.966c-108.85-90.718-226.24-6.753-329.858-93.754
						c-44.691-37.524-69.214-92.077-82.018-150.095h-78.836c-30.194,0-54.743,25.425-54.743,56.787V2911.53
						C603.805,2942.89,628.35,2966.505,658.542,2964.287z"/>
				</g>
				
					<linearGradient id="SVGID_00000000192326734910957950000009795366860948749483_" gradientUnits="userSpaceOnUse" x1="641.1532" y1="2968.4636" x2="3295.9065" y2="2968.4636">
					<stop  offset="0.494" style="stop-color:#EBEFF2"/>
					<stop  offset="1" style="stop-color:#FFFFFF"/>
				</linearGradient>
				<path style="fill:url(#SVGID_00000000192326734910957950000009795366860948749483_);" d="M2425.356,2833.187L641.153,2963.93
					l777.946,138.556c8.909,1.587,17.943,2.008,26.933,1.255l1849.874-154.857l-842.168-114.809
					C2444.32,2832.792,2434.821,2832.494,2425.356,2833.187z"/>
				<polygon style="fill:#D8DEE8;" points="901.496,2965.054 2386.899,2854.586 2846.618,2916.752 1374.011,3034.839 				"/>
			</g>
		</g>
		<g>
			
				<linearGradient id="SVGID_00000001624125776769703310000014442537285243090820_" gradientUnits="userSpaceOnUse" x1="2855.9277" y1="85.9171" x2="2192.9846" y2="1743.2761">
				<stop  offset="0" style="stop-color:#311944"/>
				<stop  offset="1" style="stop-color:#893976"/>
			</linearGradient>
			<path style="fill:url(#SVGID_00000001624125776769703310000014442537285243090820_);" d="M2757.898,882.787
				c0,5.846,0.236,11.634-0.377,17.333c-0.263,2.456-0.307,4.882-0.686,7.278c-0.759,4.823-1.585,9.588-2.784,14.265
				c-0.585,2.339-1.158,4.676-1.83,6.986c-0.468,1.52-0.93,3.069-1.427,4.589c-11.926,35.719-36.199,66.674-68.557,89.766
				c-0.702,0.497-1.366,0.994-2.066,1.461c-11.137,7.775-23.176,14.586-36.008,20.403c-0.789,0.351-1.576,0.701-2.394,1.053
				c-5.642,2.484-11.428,4.764-17.362,6.839c-2.513,0.877-5.086,1.725-7.658,2.514c-1.724,0.555-3.449,1.081-5.202,1.578
				c-2.602,0.76-5.232,1.462-7.893,2.134c-1.754,0.438-3.537,0.877-5.319,1.286c-22.333,5.145-46.038,7.425-70.445,6.344
				c-1.813-0.089-3.625-0.176-5.408-0.293c-0.527-0.029-1.052-0.088-1.549-0.117c-0.147,0-0.293-0.029-0.44-0.029
				c-1.139-0.088-2.279-0.146-3.39-0.263c-0.585-0.059-1.14-0.087-1.696-0.146c-1.228-0.117-2.485-0.234-3.712-0.351
				c-0.527-0.059-1.052-0.146-1.579-0.205c-1.257-0.116-2.543-0.263-3.799-0.438c-0.468-0.058-0.906-0.117-1.375-0.175
				c-1.344-0.175-2.689-0.35-4.063-0.555c-0.321-0.059-0.672-0.117-1.022-0.176c-1.491-0.205-2.953-0.438-4.444-0.702
				c-0.204-0.029-0.408-2.096-0.584-2.125c-1.666-0.292-3.333-2.943-4.97-2.943h-0.029c-13.914,0-27.302-4.364-40.016-9.07
				c0.029-0.029,0.029,0.99,0.059,0.96c-3.975-1.462-7.893-2.531-11.751-4.197c-3.42-1.491-6.782-2.785-10.085-4.392
				c-1.607,1.286-3.478,2.758-5.553,4.19c-26.57-11.429-49.984-27.091-68.983-45.974c2.222-3.011,4.356-6.136,6.314-9.439
				c-27.389-31.218-43.466-69.581-43.466-110.474c0-98.068,92.455-180.372,211.539-183.967c3.888-0.117,6.719-0.142,10.548-0.084
				c116.687,1.491,214.697,78.955,218.287,178.805v0.117c0,1.257,0,2.543,0,3.829v0.584
				C2756.724,880.243,2757.898,881.501,2757.898,882.787z"/>
			<g>
				
					<linearGradient id="SVGID_00000034080914095265720770000018357061781286620054_" gradientUnits="userSpaceOnUse" x1="2439.4883" y1="727.5948" x2="2744.5161" y2="1293.3309">
					<stop  offset="0" style="stop-color:#FF9085"/>
					<stop  offset="1" style="stop-color:#FB6FBB"/>
				</linearGradient>
				<path style="fill:url(#SVGID_00000034080914095265720770000018357061781286620054_);" d="M2743.14,882.115
					c0,104.732-101.311,185.583-222.646,184.063c-2.806-0.029-5.64-0.117-8.476-0.234c-2.572-0.116-5.144-0.263-7.687-0.467
					c-2.602-0.176-5.202-0.41-7.776-0.672c-0.525-0.058-1.052-0.088-1.579-0.176c-1.666-0.176-3.303-0.351-4.968-0.584
					c-1.637-0.205-3.246-0.409-4.881-0.672c-2.339-0.322-4.677-0.702-6.987-1.111c-1.403-0.263-2.777-0.497-4.15-0.759
					c-13.885-2.69-27.272-6.431-39.988-11.166c-3.917-1.462-7.746-2.981-11.517-4.619c-26.57-11.429-49.984-27.155-68.983-46.038
					c-33.177-32.855-53.023-75.18-53.023-120.633c0-98.068,92.455-180.38,211.538-183.975c9.266-0.293,18.416-0.088,27.448,0.584
					c96.825,6.994,177.537,66.355,198.393,145.843c0.003,0.011,0.006,0.021,0.009,0.031c0.524,2,1.016,4.008,1.464,6.033
					c0.146,0.652,0.275,1.309,0.412,1.964c0.335,1.61,0.674,3.219,0.959,4.843c0.425,2.385,0.806,4.782,1.123,7.196
					c-0.03,0.029,0,0.058,0,0.117c0.117,0.906,0.234,1.841,0.321,2.747c0.147,1.14,0.263,2.28,0.351,3.42
					c0.117,1.257,0.234,2.543,0.293,3.799c0.029,0.38,0.059,0.789,0.087,1.169c0.089,1.461,0.147,2.923,0.176,4.385
					C2743.111,878.84,2743.14,880.477,2743.14,882.115z"/>
				
					<linearGradient id="SVGID_00000132073071842761520340000016197804135979313330_" gradientUnits="userSpaceOnUse" x1="2439.4883" y1="727.5948" x2="2744.5161" y2="1293.3309">
					<stop  offset="0" style="stop-color:#FF9085"/>
					<stop  offset="1" style="stop-color:#FB6FBB"/>
				</linearGradient>
				<path style="fill:url(#SVGID_00000132073071842761520340000016197804135979313330_);" d="M2743.14,882.115
					c0,104.732-101.311,185.583-222.646,184.063c-2.806-0.029-5.64-0.117-8.476-0.234c-2.572-0.116-5.144-0.263-7.687-0.467
					c-2.602-0.176-5.202-0.41-7.776-0.672c-0.525-0.058-1.052-0.088-1.579-0.176c-1.666-0.176-3.303-0.351-4.968-0.584
					c-1.637-0.205-3.246-0.409-4.881-0.672c-2.339-0.322-4.677-0.702-6.987-1.111c-1.403-0.263-2.777-0.497-4.15-0.759
					c-13.885-2.69-27.272-6.431-39.988-11.166c-3.917-1.462-7.746-2.981-11.517-4.619c-26.57-11.429-49.984-27.155-68.983-46.038
					c-33.177-32.855-53.023-75.18-53.023-120.633c0-98.068,92.455-180.38,211.538-183.975c9.266-0.293,18.416-0.088,27.448,0.584
					c96.825,6.994,177.537,66.355,198.393,145.843c0.003,0.011,0.006,0.021,0.009,0.031c0.524,2,1.016,4.008,1.464,6.033
					c0.146,0.652,0.275,1.309,0.412,1.964c0.335,1.61,0.674,3.219,0.959,4.843c0.425,2.385,0.806,4.782,1.123,7.196
					c-0.03,0.029,0,0.058,0,0.117c0.117,0.906,0.234,1.841,0.321,2.747c0.147,1.14,0.263,2.28,0.351,3.42
					c0.117,1.257,0.234,2.543,0.293,3.799c0.029,0.38,0.059,0.789,0.087,1.169c0.089,1.461,0.147,2.923,0.176,4.385
					C2743.111,878.84,2743.14,880.477,2743.14,882.115z"/>
				<g>
					<path style="fill:#FFFFFF;" d="M2390.713,830.927L2390.713,830.927c8.953-25.526,31.317-43.85,57.744-44.168
						c34.896-0.42,63.549,30.651,63.549,69.404c0-38.753,28.987-70.516,65.21-70.952c28.132-0.338,52.428,18.276,62.281,44.947
						l0.001,0c37.761,96.258-127.492,180.715-127.492,180.715S2357.02,921.417,2390.713,830.927z"/>
				</g>
				<g style="opacity:0.3;">
					
						<linearGradient id="SVGID_00000120524025384854407540000013332638265773041560_" gradientUnits="userSpaceOnUse" x1="-2944.1067" y1="759.8974" x2="-2645.1169" y2="1359.8977" gradientTransform="matrix(-1 0 0 1 -258.321 0)">
						<stop  offset="0" style="stop-color:#FF9085"/>
						<stop  offset="1" style="stop-color:#FB6FBB"/>
					</linearGradient>
					<path style="fill:url(#SVGID_00000120524025384854407540000013332638265773041560_);" d="M2458.945,1016.868
						c26.222-53.56-0.286-104.832,35.231-139.622c36.609-35.86,84.995-2.029,138.125-31.702
						c20.841-11.64,44.214-34.064,61.725-80.388c30.698,32.052,49.108,72.681,49.108,116.945
						c0,107.159-106.073,189.352-231.127,183.838c-27.792-1.225-54.089-6.698-78.053-15.558
						C2445.741,1039.369,2453.576,1027.835,2458.945,1016.868z"/>
				</g>
			</g>
		</g>
		<g>
			
				<linearGradient id="SVGID_00000121961524449747775240000012437818826587685800_" gradientUnits="userSpaceOnUse" x1="2547.6365" y1="1175.7509" x2="2687.3276" y2="1335.6198">
				<stop  offset="0" style="stop-color:#FFC444"/>
				<stop  offset="0.9964" style="stop-color:#F36F56"/>
			</linearGradient>
			<path style="fill:url(#SVGID_00000121961524449747775240000012437818826587685800_);" d="M2895.767,1319.981
				c0.062,0.682,0.119,1.366,0.17,2.05c0.042,0.565,0.083,1.13,0.117,1.698c0.05,0.82,0.088,1.643,0.122,2.466
				c0.019,0.455,0.042,0.909,0.057,1.365c0.039,1.293,0.064,2.59,0.064,3.891c0,5.667-0.374,11.273-1.104,16.801
				c-1.278,9.676-3.645,19.12-7.002,28.256c-0.48,1.305-0.979,2.605-1.5,3.897c-2.079,5.169-4.477,10.235-7.175,15.183
				c-6.071,11.132-13.662,21.667-22.561,31.445c-1.978,2.173-4.02,4.309-6.125,6.405c-2.104,2.096-4.271,4.154-6.499,6.17
				c-8.908,8.066-18.775,15.478-29.455,22.125c-1.335,0.831-2.683,1.649-4.043,2.456c-2.72,1.613-5.49,3.178-8.307,4.692
				c-9.859,5.299-20.298,9.979-31.216,13.966c-3.119,1.139-6.278,2.221-9.473,3.245c-3.196,1.023-6.428,1.989-9.695,2.895
				c-3.267,0.906-6.568,1.751-9.902,2.535c-18.335,4.309-37.644,6.746-57.543,7.02c-1.705,0.023-3.404,0.029-5.098,0.02
				c-0.544-0.002-1.084-0.016-1.627-0.022c-1.154-0.012-2.308-0.026-3.457-0.053c-0.619-0.015-1.234-0.04-1.851-0.058
				c-1.071-0.033-2.143-0.067-3.209-0.113c-0.631-0.027-1.26-0.062-1.89-0.094c-1.055-0.052-2.109-0.108-3.16-0.172
				c-0.612-0.038-1.221-0.082-1.832-0.124c-1.072-0.074-2.142-0.152-3.209-0.239c-0.575-0.047-1.149-0.097-1.723-0.148
				c-1.11-0.097-2.218-0.201-3.322-0.313c-0.518-0.052-1.035-0.106-1.552-0.161c-1.18-0.127-2.356-0.261-3.529-0.403
				c-0.431-0.052-0.862-0.103-1.291-0.158c-1.299-0.163-2.591-0.338-3.88-0.52c-0.296-0.042-0.594-0.083-0.89-0.125
				c-1.496-0.217-2.985-0.447-4.468-0.69c-0.086-0.014-0.173-0.027-0.259-0.041c-9.485-1.559-18.704-3.624-27.603-6.168
				c0.008-0.008,0.016-0.015,0.024-0.023c-76.055-21.786-129.245-78.231-129.245-145.163c0-87.018,89.896-161.668,203.07-166.838
				c109.29-4.993,200.786,56.332,210.694,139.492c0.065,0.541,0.131,1.081,0.189,1.625
				C2895.649,1318.697,2895.709,1319.339,2895.767,1319.981z"/>
			<g>
				
					<linearGradient id="SVGID_00000149368634263996860800000017784845684902340233_" gradientUnits="userSpaceOnUse" x1="-3003.0508" y1="1200.8126" x2="-2730.3728" y2="1706.5497" gradientTransform="matrix(-1 0 0 1 -258.321 0)">
					<stop  offset="0" style="stop-color:#FFC444"/>
					<stop  offset="0.9964" style="stop-color:#F36F56"/>
				</linearGradient>
				<path style="fill:url(#SVGID_00000149368634263996860800000017784845684902340233_);" d="M2468.05,1343.779
					c0,87.018,87.949,156.323,198.672,154.765c113.267-1.594,207.016-76.418,207.016-167.092s-93.749-159.8-207.016-154.511
					C2555.999,1182.112,2468.05,1256.761,2468.05,1343.779z"/>
				<path style="fill:#FFFFFF;" d="M2607.675,1253.114v153.948c0,9.882,8.368,16.052,15.597,11.514l128.921-80.928
					c8.041-5.048,8.041-19.344,0-23.903l-128.921-73.093C2616.043,1236.554,2607.675,1243.231,2607.675,1253.114z"/>
				<g style="opacity:0.3;">
					
						<linearGradient id="SVGID_00000172412877669711569400000007778373436300889988_" gradientUnits="userSpaceOnUse" x1="-3079.009" y1="1227.6139" x2="-2810.1338" y2="1767.1821" gradientTransform="matrix(-1 0 0 1 -258.321 0)">
						<stop  offset="0" style="stop-color:#FFC444"/>
						<stop  offset="0.9964" style="stop-color:#F36F56"/>
					</linearGradient>
					<path style="fill:url(#SVGID_00000172412877669711569400000007778373436300889988_);" d="M2617.738,1458.479
						c24.277-47.811-0.265-91.415,32.586-122.958c33.601-32.262,77.607-4.587,125.408-31.729
						c18.604-10.564,39.371-30.34,54.863-70.204c27.021,26.492,43.143,60.411,43.143,97.865
						c0,90.673-93.749,165.498-207.016,167.092c-25.587,0.36-49.938-3.059-72.25-9.579
						C2605.461,1478.752,2612.75,1468.302,2617.738,1458.479z"/>
				</g>
			</g>
		</g>
		<g>
			
				<linearGradient id="SVGID_00000132780814961467726130000007265993359127186565_" gradientUnits="userSpaceOnUse" x1="1848.2314" y1="772.8566" x2="2094.835" y2="831.1094">
				<stop  offset="0" style="stop-color:#311944"/>
				<stop  offset="1" style="stop-color:#893976"/>
			</linearGradient>
			<path style="fill:url(#SVGID_00000132780814961467726130000007265993359127186565_);" d="M2011.59,681.539
				c81.215,2.493,149.425,52.078,162.716,114.847c0.017,0.082,0.034,0.164,0.051,0.247c0.719,3.435,1.273,6.91,1.657,10.419
				c0.025,0.231,0.053,0.463,0.077,0.695c0.168,1.64,0.299,3.287,0.391,4.941c0.017,0.3,0.029,0.601,0.043,0.901
				c0.081,1.69,0.135,3.385,0.135,5.09c0,72.941-74.446,128.219-165.07,123.528c-2.411-0.125-4.806-0.299-7.189-0.505
				c-0.233-0.02-0.468-0.037-0.701-0.058c-2.256-0.203-4.497-0.449-6.728-0.723c-0.347-0.043-0.694-0.083-1.041-0.128
				c-2.158-0.276-4.302-0.59-6.433-0.932c-0.402-0.064-0.803-0.129-1.204-0.196c-2.091-0.349-4.17-0.728-6.233-1.138
				c-0.418-0.083-0.835-0.171-1.252-0.256c-2.053-0.422-4.094-0.868-6.118-1.351c-0.392-0.094-0.781-0.193-1.172-0.289
				c-2.01-0.491-4.009-1.005-5.989-1.554c-0.355-0.099-0.707-0.204-1.061-0.305c-1.782-0.505-3.55-1.035-5.305-1.587
				c-0.445-0.14-0.894-0.273-1.337-0.416c-1.781-0.573-3.542-1.178-5.293-1.798c-0.378-0.133-0.766-0.252-1.142-0.388
				c0.005-0.005,0.009-0.009,0.014-0.013c-60.241-21.73-102.595-70.635-102.595-125.326
				C1850.81,734.197,1922.274,678.797,2011.59,681.539z"/>
			<g>
				
					<linearGradient id="SVGID_00000001642237350436972100000009254376527477491329_" gradientUnits="userSpaceOnUse" x1="-2312.0845" y1="705.9019" x2="-2100.6692" y2="1098.0145" gradientTransform="matrix(-1 0 0 1 -258.321 0)">
					<stop  offset="0.0036" style="stop-color:#E38DDD"/>
					<stop  offset="1" style="stop-color:#9571F6"/>
				</linearGradient>
				<path style="fill:url(#SVGID_00000001642237350436972100000009254376527477491329_);" d="M1833.615,805.243
					c0,71.046,71.464,132.339,160.781,136.963c90.624,4.691,165.07-50.587,165.07-123.528c0-72.941-74.446-134.358-165.07-137.139
					C1905.079,678.797,1833.615,734.197,1833.615,805.243z"/>
				<path style="fill:#FFFFFF;" d="M1936.403,782.897c0,20.86,24.287,70.474,41.441,102.923
					c7.145,13.516,25.971,14.425,33.146,1.567c17.294-30.995,41.945-78.879,41.945-99.937c0-32.496-26.278-59.741-58.541-60.848
					C1962.3,725.5,1936.403,750.706,1936.403,782.897z M1963.191,783.944c0-17.321,13.951-30.853,31.205-30.223
					c17.301,0.632,31.362,15.258,31.362,32.668c0,17.409-14.061,30.937-31.362,30.217
					C1977.142,815.887,1963.191,801.265,1963.191,783.944z"/>
				<g style="opacity:0.3;">
					
						<linearGradient id="SVGID_00000165195142785424221960000005868894530895759027_" gradientUnits="userSpaceOnUse" x1="-2374.0515" y1="731.809" x2="-2166.8752" y2="1147.562" gradientTransform="matrix(-1 0 0 1 -258.321 0)">
						<stop  offset="0" style="stop-color:#FF9085"/>
						<stop  offset="1" style="stop-color:#FB6FBB"/>
					</linearGradient>
					<path style="fill:url(#SVGID_00000165195142785424221960000005868894530895759027_);" d="M1954.971,907.073
						c19.557-37.468-0.214-74.242,26.243-97.951c26.994-24.191,62.248,0.77,100.414-18.389
						c14.819-7.439,31.336-22.167,43.642-53.372c21.43,22.946,34.196,51.187,34.196,81.316c0,72.942-74.446,128.219-165.07,123.528
						c-20.576-1.065-40.194-5.135-58.2-11.623C1945.068,922.875,1950.949,914.779,1954.971,907.073z"/>
				</g>
			</g>
		</g>
		<g>
			
				<linearGradient id="SVGID_00000069368663983587027580000005455925217577074341_" gradientUnits="userSpaceOnUse" x1="1505.7838" y1="4171.4302" x2="2354.2708" y2="2854.377" gradientTransform="matrix(1 0 0 -1 0 5720.5444)">
				<stop  offset="0" style="stop-color:#FFC444"/>
				<stop  offset="0.9964" style="stop-color:#F36F56"/>
			</linearGradient>
			<path style="fill:url(#SVGID_00000069368663983587027580000005455925217577074341_);" d="M1793.128,1269.958l546.934,565.613
				c-8.571,9.707-22.557,9.919-36.299,9.003l-1290.973-86.07c-12.132-0.809-23.32-6.698-31.96-15.7l718.802-486.697
				C1728.16,1236.79,1766.349,1242.439,1793.128,1269.958z"/>
			<g>
				
					<linearGradient id="SVGID_00000094604996684730258560000016530460462971729542_" gradientUnits="userSpaceOnUse" x1="1647.3335" y1="2146.0327" x2="1699.9452" y2="996.5535">
					<stop  offset="0" style="stop-color:#FFC444"/>
					<stop  offset="0.9964" style="stop-color:#F36F56"/>
				</linearGradient>
				<path style="fill:url(#SVGID_00000094604996684730258560000016530460462971729542_);" d="M1802.72,2324.176l539.62-485.94
					c-8.424-10.61-20.439-17.634-33.955-18.451l-1291.468-78.109c-12.343-0.746-23.73,3.708-32.526,11.604l725.017,573.448
					C1737.904,2349.269,1776.018,2348.223,1802.72,2324.176z"/>
				
					<linearGradient id="SVGID_00000044167091965238226540000012511302090120597420_" gradientUnits="userSpaceOnUse" x1="1523.4475" y1="1995.1494" x2="2040.5619" y2="3140.436">
					<stop  offset="0" style="stop-color:#FFC444"/>
					<stop  offset="0.9964" style="stop-color:#F36F56"/>
				</linearGradient>
				<path style="fill:url(#SVGID_00000044167091965238226540000012511302090120597420_);" d="M1802.72,2324.176
					c-26.702,24.047-64.816,25.093-93.312,2.554l-725.017-573.448c-10.726,9.628-17.596,24.376-17.596,41.121v929.682
					c0,31.338,23.97,56.505,52.076,54.682l1291.45-83.761c25.051-1.625,44.414-24.567,44.414-52.619v-768.007
					c0-13.788-4.704-26.458-12.396-36.145L1802.72,2324.176z"/>
			</g>
			<g>
				
					<linearGradient id="SVGID_00000004523182835922546060000002464340894032100231_" gradientUnits="userSpaceOnUse" x1="1226.8523" y1="2261.6025" x2="651.5845" y2="2322.6646">
					<stop  offset="0" style="stop-color:#FFC444"/>
					<stop  offset="0.9964" style="stop-color:#F36F56"/>
				</linearGradient>
				<path style="fill:url(#SVGID_00000004523182835922546060000002464340894032100231_);" d="M2286.283,1819.3l-1291.666-78.117
					c-27.399-1.657-50.13,22.25-50.13,52.73v929.754c0,31.34,23.974,56.51,52.084,54.687l1291.649-83.766
					c25.054-1.625,44.42-24.569,44.42-52.623V1873.9C2332.64,1845.009,2312.142,1820.864,2286.283,1819.3z"/>
			</g>
			<path style="fill:#D8DEE8;" d="M2294.029,2687.063V1226.33c0-49.489-13.957-97.149-39.885-139.105L984.607,975.503
				l-18.926,18.041c26.964,41.852,42.994,90.495,42.994,141.278v1580.442L2294.029,2687.063z"/>
			
				<linearGradient id="SVGID_00000130611970583450947460000018144558675516873884_" gradientUnits="userSpaceOnUse" x1="1913.6726" y1="1280.9803" x2="1127.0275" y2="2907.7847">
				<stop  offset="0" style="stop-color:#FFFFFF"/>
				<stop  offset="0.9964" style="stop-color:#EBEFF2"/>
			</linearGradient>
			<path style="fill:url(#SVGID_00000130611970583450947460000018144558675516873884_);" d="M2318.699,2670.185V1208.356
				c0-87.005-16.498-97.15-42.46-139.134L984.607,975.503c26.999,41.879,41.556,90.553,41.556,141.37v1581.495L2318.699,2670.185z"
				/>
			<g>
				
					<linearGradient id="SVGID_00000016775623447202571690000006083190615897115313_" gradientUnits="userSpaceOnUse" x1="1524.7002" y1="1995.9918" x2="2041.1124" y2="3139.7234">
					<stop  offset="0" style="stop-color:#FFC444"/>
					<stop  offset="0.9964" style="stop-color:#F36F56"/>
				</linearGradient>
				<path style="fill:url(#SVGID_00000016775623447202571690000006083190615897115313_);" d="M2354.602,1874.375v768.028
					c0,28.064-19.288,50.974-44.346,52.61l-80.907,5.237l-1209.548,78.539c-28.09,1.818-51.084-23.358-51.084-54.708v-929.642
					c0-1.063-0.932-2.103-0.871-3.128c0.061-1.312-0.33-2.625-0.176-3.898c0.091-0.686-0.059-1.373,0.063-2.055
					c0-0.094-0.12-0.19-0.089-0.25c0.152-0.965,0.275-1.897,0.458-2.828c0.183-0.84,0.336-1.677,0.549-2.482
					c0.336-1.336,0.686-2.604,1.113-3.874c0.823-2.477,1.79-4.828,2.918-7.109c0.549-1.051,1.093-2.099,1.672-3.116
					c0.397-0.677,0.791-1.323,1.218-1.999c0.487-0.769,1.005-1.537,1.552-2.275c0.549-0.768,1.096-1.505,1.675-2.208
					c0.58-0.706,1.159-1.409,1.767-2.084c0.701-0.764,1.401-1.529,2.133-2.259c0.547-0.552,1.128-1.069,1.707-1.586l725.018,573.454
					c28.496,22.54,66.593,21.467,93.288-2.566l539.638-485.949c3.865,4.835,6.973,10.427,9.055,16.557
					c0.573,1.504,1.027,3.066,1.419,4.657c0.211,0.781,0.392,1.561,0.573,2.341c0.15,0.685,0.271,1.403,0.392,2.088
					c0.152,0.81,0.302,1.683,0.394,2.525c0.119,0.87,0.179,1.739,0.24,2.61C2354.574,1870.775,2354.602,1872.574,2354.602,1874.375z
					"/>
			</g>
			
				<linearGradient id="SVGID_00000137097310262657120150000013812719847160941244_" gradientUnits="userSpaceOnUse" x1="1675.2805" y1="1926.5935" x2="2192.3816" y2="3071.8508">
				<stop  offset="0" style="stop-color:#FFC444"/>
				<stop  offset="0.9964" style="stop-color:#F36F56"/>
			</linearGradient>
			<path style="opacity:0.37;fill:url(#SVGID_00000137097310262657120150000013812719847160941244_);" d="M2354.602,1874.375
				v768.028c0,28.064-19.288,50.974-44.346,52.61l-80.907,5.237c-12.689-37.449-32.373-71.897-63.196-94.108
				c-101.947-73.464-224.539,59.628-344.667-13.749c-85.821-52.394-52.476-138.066-156.643-213.276
				c-98.658-71.261-158.211-15.894-227.298-90.15c-66.354-71.366-33.233-145.965-108.964-212.744
				c-39.31-34.694-48.674-14.979-137.92-63.58c-95.51-52.036-106.454-86.922-156.367-92.64
				c-18.064-2.073-44.034-0.224-65.576,11.521v-137.086c0-1.063-0.932-2.103-0.871-3.128c0.061-1.312-0.33-2.625-0.176-3.898
				c0.091-0.686-0.059-1.373,0.063-2.055c0-0.094-0.12-0.19-0.089-0.25c0.152-0.965,0.275-1.897,0.458-2.828
				c0.183-0.84,0.336-1.677,0.549-2.482c0.336-1.336,0.686-2.604,1.113-3.874c0.823-2.477,1.79-4.828,2.918-7.109
				c0.549-1.051,1.093-2.099,1.672-3.116c0.397-0.677,0.791-1.323,1.218-1.999c0.487-0.769,1.005-1.537,1.552-2.275
				c0.549-0.768,1.096-1.505,1.675-2.208c0.58-0.706,1.159-1.409,1.767-2.084c0.701-0.764,1.401-1.529,2.133-2.259
				c0.547-0.552,1.128-1.069,1.707-1.586l725.018,573.454c28.496,22.54,66.593,21.467,93.288-2.566l539.638-485.949
				c3.833,4.865,6.913,10.459,9.055,16.557c0.544,1.534,0.996,3.096,1.419,4.657c0.211,0.781,0.392,1.561,0.573,2.341
				c0.15,0.685,0.271,1.403,0.392,2.088c0.152,0.81,0.302,1.683,0.394,2.525c0.119,0.87,0.179,1.739,0.24,2.61
				C2354.574,1870.775,2354.602,1872.574,2354.602,1874.375z"/>
			<g>
				
					<linearGradient id="SVGID_00000128466827277573509000000001846222726448870068_" gradientUnits="userSpaceOnUse" x1="1237.4222" y1="1627.5828" x2="2119.4082" y2="1627.5828">
					<stop  offset="0" style="stop-color:#AA80F9"/>
					<stop  offset="0.9964" style="stop-color:#6165D7"/>
				</linearGradient>
				<path style="fill:url(#SVGID_00000128466827277573509000000001846222726448870068_);" d="M2119.408,1593.636
					c0,51.602-7.907,98.582-23.723,140.982c-15.853,42.482-38.293,75.628-67.38,99.436c-29.179,23.894-63.166,35.476-102.011,34.702
					c-25.996-0.518-49.056-7.419-69.177-20.736c-20.164-13.336-34.7-30.681-43.567-52.019l-8.525-0.202
					c-38.46,46.212-87.661,68.795-147.766,67.597c-64.134-1.278-114.994-21.981-152.357-62.221
					c-37.511-40.403-56.324-95.032-56.324-163.785c0-78.404,24.702-140.613,73.927-186.428
					c48.96-45.577,112.521-66.489,190.376-62.935c30.815,1.406,64.651,5.962,101.468,13.65
					c36.671,7.655,66.763,16.178,90.349,25.562l-12.135,265.6c0,50.435,13.363,75.989,40.041,76.665
					c22.398,0.568,40.212-15.864,53.466-49.272c13.229-33.352,19.839-77.236,19.839-131.687c0-58.052-11.659-109.824-35.007-155.414
					c-23.416-45.697-56.451-81.378-99.218-107.053c-42.966-25.785-92.279-40.151-148.041-43.014
					c-72.708-3.733-136.339,8.311-190.702,36.266c-54.691,28.127-96.833,70.664-126.273,127.625
					c-29.532,57.15-44.333,124.055-44.333,200.577c0,103.034,27.437,182.672,82.089,238.663
					c54.328,55.676,132.506,84.106,233.936,85.537c38.106,0.538,79.813-3.165,125.068-11.087
					c45.025-7.875,89.137-19.634,132.331-35.232v104.247c-75.286,32.23-159.562,48.061-253.076,47.272
					c-137.863-1.165-246.766-39.273-325.66-114.775c-79.568-76.139-119.599-181.337-119.599-315.12
					c0-92.813,20.455-176.259,61.255-250.1c40.616-73.518,98.154-129.62,172.305-168.321
					c73.563-38.39,157.526-54.777,251.585-49.421c78.542,4.472,148.139,24.782,208.985,60.778
					c60.435,35.757,106.803,84.27,139.311,145.532C2103.25,1446.555,2119.408,1515.882,2119.408,1593.636z M1576.203,1643.654
					c0,77.88,31.271,117.608,93.505,119.186c32.4,0.821,56.976-10.174,73.811-32.969c16.797-22.745,26.969-60.164,30.537-112.28
					l6.952-120.776c-18.189-4.743-38.746-7.581-61.667-8.504c-44.95-1.809-80.065,11.123-105.241,38.86
					C1588.847,1554.98,1576.203,1593.828,1576.203,1643.654z"/>
			</g>
		</g>
		<g>
			
				<linearGradient id="SVGID_00000101069369394171447190000013517598442451490961_" gradientUnits="userSpaceOnUse" x1="-650.5365" y1="1617.8468" x2="-327.579" y2="1617.8468" gradientTransform="matrix(0.9849 -0.1731 0.1731 0.9849 747.7337 392.2828)">
				<stop  offset="0" style="stop-color:#AA80F9"/>
				<stop  offset="0.9964" style="stop-color:#6165D7"/>
			</linearGradient>
			<path style="fill:url(#SVGID_00000101069369394171447190000013517598442451490961_);" d="M417.966,2212.868
				c-30.073-60.088-25.388-92.029-14.341-110.251c30.11-49.668,121.553-20.614,165.474-74.396
				c27.233-33.347,23.191-82.615,14.342-121.51c6.885,0.49,13.771,0.979,20.656,1.469c74.517,47.471,115.754,126.248,101.6,191.225
				C685.928,2190.168,555.662,2265.146,417.966,2212.868z"/>
			<g>
				
					<linearGradient id="SVGID_00000051376160584820316580000014839567900840024754_" gradientUnits="userSpaceOnUse" x1="1548.988" y1="2029.8966" x2="890.8248" y2="1843.6501">
					<stop  offset="0" style="stop-color:#311944"/>
					<stop  offset="1" style="stop-color:#A03976"/>
				</linearGradient>
				<path style="fill:url(#SVGID_00000051376160584820316580000014839567900840024754_);" d="M1040.26,1982.472
					c21.078,10.701,47.559,0.876,59.147-21.947c11.588-22.823,3.894-50-17.184-60.702c-1.092-0.555-2.206-1.021-3.324-1.467
					c3.916-12.629,6.869-25.356,8.849-38.089c1.208-0.003,2.421-0.024,3.652-0.133c24.048-2.144,43.134-24.241,42.63-49.358
					c-0.503-25.117-20.406-43.74-44.454-41.597c-1.258,0.113-2.492,0.311-3.719,0.529c-2.512-12.447-5.954-24.606-10.296-36.373
					c1.106-0.647,2.207-1.316,3.282-2.069c20.574-14.414,27.152-42.863,14.692-63.543c-12.46-20.68-39.24-25.758-59.814-11.344
					c-1.054,0.739-2.046,1.536-3.026,2.346c-8.127-8.984-17.039-17.309-26.682-24.906c0.678-1.112,1.341-2.238,1.942-3.42
					c11.588-22.823,26.73-47.754,5.487-58.124c-49.141-23.99-70.229-3.454-81.817,19.369c-0.6,1.182-1.117,2.383-1.615,3.586
					c-11.824-3.301-23.804-5.584-35.853-6.844c0.076-1.269,0.134-2.54,0.109-3.828c-0.504-25.116,6.948-38.707-17.19-39.177
					c-52.638-1.024-70.398,21.824-69.895,46.939c0.026,1.313,0.136,2.596,0.266,3.871c-12.063,3.438-23.909,7.834-35.441,13.152
					c-0.548-1.12-1.117-2.234-1.768-3.315c-12.46-20.679-39.24-25.757-59.814-11.342c-20.574,14.415-27.152,42.863-14.692,63.542
					c0.638,1.06,1.338,2.05,2.048,3.028c-9.111,9.112-17.644,19.007-25.528,29.62c-1.02-0.64-2.054-1.265-3.146-1.819
					c-21.078-10.702-47.559-0.875-59.146,21.948c-11.588,22.823-3.894,50,17.183,60.702c1.092,0.555,2.207,1.02,3.325,1.466
					c-3.916,12.629-6.869,25.356-8.849,38.089c-1.208,0.004-2.421,0.024-3.652,0.132c-24.049,2.145-43.134,24.242-42.631,49.359
					c0.504,25.116,20.407,43.739,44.455,41.595c1.256-0.112,2.491-0.309,3.718-0.528c2.512,12.447,5.953,24.606,10.296,36.374
					c-1.106,0.647-2.207,1.316-3.282,2.069c-20.574,14.414-27.152,42.864-14.692,63.543c12.46,20.68,53.711,30.287,74.285,15.873
					c1.054-0.739-12.425-6.065-11.445-6.875c8.127,8.983,17.039,17.308,26.682,24.906c-0.677,1.111-1.341,2.238-1.942,3.42
					c-11.588,22.823-3.894,50,17.184,60.702c21.078,10.701,47.559,0.875,59.146-21.948c0.6-1.182,1.117-2.383,1.615-3.586
					c11.824,3.302,23.805,5.584,35.852,6.844c-0.075,1.269-0.134,2.54-0.108,3.828c0.504,25.115,20.407,43.739,44.454,41.595
					c24.048-2.144,43.135-24.242,42.63-49.358c-0.026-1.313-0.136-2.596-0.266-3.871c12.063-3.438,23.91-7.834,35.441-13.152
					c0.548,1.12,1.117,2.234,1.768,3.314c12.46,20.679,39.239,25.759,59.814,11.344c20.575-14.415,27.152-42.863,14.692-63.544
					c-0.638-1.058-1.338-2.049-2.048-3.026c9.111-9.112,17.644-19.007,25.528-29.62
					C1038.135,1981.292,1039.169,1981.917,1040.26,1982.472z M777.505,1985.806c-76.529-38.855-104.462-137.529-62.389-220.394
					c42.072-82.866,138.218-118.543,214.747-79.687c76.529,38.856,104.462,137.53,62.389,220.395
					C950.179,1988.985,854.034,2024.661,777.505,1985.806z"/>
				
					<linearGradient id="SVGID_00000107555152275838139570000007527933165983330223_" gradientUnits="userSpaceOnUse" x1="1547.2622" y1="2035.9919" x2="889.0978" y2="1849.7451">
					<stop  offset="0" style="stop-color:#311944"/>
					<stop  offset="1" style="stop-color:#A03976"/>
				</linearGradient>
				<path style="fill:url(#SVGID_00000107555152275838139570000007527933165983330223_);" d="M1091.4,1860.134
					c24.048-2.145,43.134-24.242,42.63-49.359c-0.503-25.116-20.406-43.74-44.454-41.596c-1.257,0.112-2.492,0.311-3.719,0.529
					c-2.511-12.448-5.954-24.605-10.296-36.373c1.106-0.646,2.207-1.316,3.282-2.07c20.574-14.414,46.027-49.243,31.512-68.534
					c-27.55-36.615-56.061-20.766-76.634-6.352c-1.054,0.739-2.046,1.536-3.026,2.345c-8.127-8.983-17.039-17.308-26.682-24.906
					c0.678-1.112,1.341-2.237,1.942-3.419c6.307-12.422,6.863-26.117,2.698-37.759c-19.872,34.976-39.477,70.099-58.73,105.413
					c61.052,44.738,80.489,132.902,42.328,208.066c-32.339,63.694-96.622,99.459-159.39,94.977
					c-2.8,7.261-5.549,14.562-8.547,21.753c-8.136,19.516-17.38,38.629-26.635,57.718c5.821,1.097,11.667,1.961,17.529,2.575
					c-0.075,1.27-0.134,2.541-0.108,3.828c0.504,25.116,15.753,46.456,59.336,44.144c24.109-1.279,28.253-26.79,27.749-51.906
					c-0.026-1.312-0.135-2.596-0.266-3.871c12.063-3.438,23.909-7.835,35.44-13.152c0.548,1.121,1.117,2.234,1.768,3.314
					c12.46,20.68,55.685,29.467,76.259,15.052c20.575-14.415,10.706-46.57-1.754-67.25c-0.638-1.059-1.338-2.05-2.048-3.028
					c9.111-9.112,17.644-19.006,25.528-29.619c1.02,0.64,2.054,1.265,3.146,1.818c21.078,10.703,47.559,0.875,59.147-21.948
					c11.587-22.822,3.894-50-17.184-60.701c-1.092-0.554-2.207-1.021-3.325-1.466c3.916-12.629,6.869-25.357,8.849-38.088
					C1088.956,1860.264,1090.168,1860.243,1091.4,1860.134z"/>
				
					<linearGradient id="SVGID_00000107557515570275737840000004372587402300367530_" gradientUnits="userSpaceOnUse" x1="873.5756" y1="1613.9728" x2="883.8679" y2="2445.0879">
					<stop  offset="0" style="stop-color:#FF9085"/>
					<stop  offset="1" style="stop-color:#FB6FBB"/>
				</linearGradient>
				<path style="fill:url(#SVGID_00000107557515570275737840000004372587402300367530_);" d="M1062.931,1985.05
					c21.078,10.701,47.559,0.875,59.146-21.948c11.588-22.823,3.895-50-17.184-60.702c-1.092-0.554-2.206-1.021-3.324-1.466
					c3.916-12.629,6.868-25.356,8.848-38.089c1.208-0.003,2.421-0.023,3.653-0.133c24.048-2.144,43.134-24.241,42.63-49.358
					c-0.503-25.117-20.406-43.74-44.454-41.597c-1.257,0.113-2.491,0.311-3.719,0.529c-2.512-12.447-5.954-24.606-10.296-36.373
					c1.106-0.647,2.207-1.316,3.282-2.069c20.574-14.414,27.152-42.863,14.692-63.543c-12.46-20.679-39.24-25.758-59.814-11.344
					c-1.055,0.739-2.046,1.536-3.026,2.346c-8.126-8.983-17.039-17.308-26.682-24.906c0.678-1.112,1.342-2.238,1.942-3.42
					c11.588-22.823,3.895-50-17.183-60.702c-21.078-10.702-47.559-0.876-59.146,21.947c-0.6,1.182-1.118,2.383-1.615,3.586
					c-11.824-3.301-23.804-5.584-35.852-6.844c0.075-1.269,0.133-2.54,0.108-3.828c-0.504-25.116-20.407-43.739-44.455-41.595
					c-24.048,2.144-43.134,24.242-42.63,49.358c0.027,1.313,0.136,2.596,0.266,3.871c-12.063,3.439-23.91,7.835-35.441,13.152
					c-0.548-1.12-1.116-2.234-1.767-3.315c-12.46-20.679-39.24-25.758-59.814-11.343c-20.575,14.415-27.152,42.864-14.692,63.543
					c0.638,1.059,1.337,2.05,2.047,3.028c-9.111,9.112-17.644,19.006-25.529,29.62c-1.019-0.64-2.053-1.265-3.146-1.819
					c-21.078-10.702-47.558-0.876-59.146,21.947c-11.588,22.823-3.895,50,17.183,60.702c1.092,0.555,2.207,1.02,3.325,1.466
					c-3.916,12.629-6.869,25.356-8.849,38.089c-1.208,0.004-2.421,0.024-3.652,0.132c-24.048,2.145-43.134,24.242-42.631,49.359
					c0.503,25.116,20.407,43.738,44.455,41.595c1.256-0.112,2.491-0.309,3.718-0.528c2.512,12.447,5.954,24.606,10.296,36.373
					c-1.106,0.647-2.207,1.316-3.282,2.07c-20.574,14.413-27.152,42.863-14.692,63.542c12.46,20.68,39.24,25.758,59.814,11.344
					c1.054-0.739,2.047-1.537,3.026-2.347c8.127,8.984,17.039,17.309,26.682,24.906c-0.677,1.112-1.342,2.238-1.942,3.42
					c-11.588,22.823-3.894,50,17.184,60.702c21.078,10.702,47.559,0.876,59.146-21.948c0.6-1.182,1.117-2.383,1.615-3.586
					c11.824,3.302,23.805,5.584,35.852,6.844c-0.075,1.269-0.134,2.54-0.108,3.828c0.504,25.115,20.406,43.739,44.454,41.595
					c24.048-2.144,43.134-24.242,42.63-49.358c-0.026-1.313-0.136-2.596-0.266-3.871c12.063-3.438,23.91-7.835,35.441-13.152
					c0.548,1.12,1.117,2.234,1.768,3.314c12.46,20.679,39.239,25.759,59.813,11.344c20.574-14.415,27.152-42.863,14.693-63.544
					c-0.639-1.058-1.338-2.049-2.048-3.027c9.111-9.111,17.644-19.006,25.529-29.62
					C1060.805,1983.87,1061.839,1984.495,1062.931,1985.05z M800.175,1988.383c-76.529-38.855-104.462-137.529-62.389-220.395
					c42.073-82.865,138.218-118.542,214.747-79.686c76.529,38.856,104.462,137.529,62.389,220.395
					C972.849,1991.563,876.704,2027.239,800.175,1988.383z"/>
			</g>
			<path style="fill:#26264F;" d="M497.616,3157.785l-1.392,16.8c-0.302,3.643,1.988,6.982,5.509,7.962
				c12.401,3.452,41.536,10.422,64.298,7.013c29.725-4.45-48.206-31.776-48.206-31.776H497.616z"/>
			
				<linearGradient id="SVGID_00000065766994462140084390000015086491402851790212_" gradientUnits="userSpaceOnUse" x1="514.9099" y1="3257.8137" x2="516.4236" y2="2953.6111">
				<stop  offset="0" style="stop-color:#FFC444"/>
				<stop  offset="0.9964" style="stop-color:#F36F56"/>
			</linearGradient>
			<path style="fill:url(#SVGID_00000065766994462140084390000015086491402851790212_);" d="M501.251,3125.988l-3.635,31.797
				c0,0,12.573,8.521,20.208,0l15.518-28.894L501.251,3125.988z"/>
			<path style="fill:#26264F;" d="M888.613,3174.766l5.153,19.009c1.578,5.077,6.07,8.679,11.369,9.119
				c18.555,1.539,61.586,4.104,80.678-3.169c24.699-9.408-72.434-27.776-72.434-27.776L888.613,3174.766z"/>
			
				<linearGradient id="SVGID_00000112595976621458217670000009420667514331350686_" gradientUnits="userSpaceOnUse" x1="898.2847" y1="3252.2939" x2="899.6815" y2="2971.5737">
				<stop  offset="0" style="stop-color:#FFC444"/>
				<stop  offset="0.9964" style="stop-color:#F36F56"/>
			</linearGradient>
			<path style="fill:url(#SVGID_00000112595976621458217670000009420667514331350686_);" d="M879.447,3149.533l9.166,22.7
				c0,0,15.564,9.111,29.409,1.824l-7.561-27.829L879.447,3149.533z"/>
			
				<linearGradient id="SVGID_00000154404934193520014440000014637330278203947455_" gradientUnits="userSpaceOnUse" x1="537.6683" y1="2510.9836" x2="613.0866" y2="3195.3296">
				<stop  offset="0" style="stop-color:#311944"/>
				<stop  offset="1" style="stop-color:#893976"/>
			</linearGradient>
			<path style="fill:url(#SVGID_00000154404934193520014440000014637330278203947455_);" d="M519.873,2497.508
				c-10.013,18.843-22.399,47.518-26.719,83.704c-6.742,56.46,12.486,78.173,25.828,157.824
				c8.492,50.693,17.386,103.798,4.81,167.889c-10.628,54.168-26.885,66.716-33.248,121.299
				c-5.547,47.583,0.995,87.932,7.681,115.221c11.406,0.464,22.811,0.933,34.218,1.396
				c37.376-49.896,79.585-120.202,106.669-210.759c8.49-28.385,4.601-22.346,18.329-311.577c1.481-31.205,3.257-67.747-20.95-94.97
				C603.065,2489.946,541.998,2494.759,519.873,2497.508z"/>
			
				<linearGradient id="SVGID_00000174591805783316359750000000395001520430257045_" gradientUnits="userSpaceOnUse" x1="638.4977" y1="2911.8374" x2="848.922" y2="2720.0349">
				<stop  offset="0" style="stop-color:#311944"/>
				<stop  offset="1" style="stop-color:#893976"/>
			</linearGradient>
			<path style="fill:url(#SVGID_00000174591805783316359750000000395001520430257045_);" d="M565.496,2481.681
				c-29.065,21.195-30.477,69.705-24.208,100.556c10.022,49.323,42.385,66.825,169.856,199.324
				c18.264,18.985,29.044,30.535,40.502,49.089c33.405,54.092,33.551,104.632,38.099,139.613
				c6.047,46.508,25.822,111.26,87.826,187.524c5.399,1.38,14.742,2.979,25.907,0.785c6.634-1.303,11.974-3.562,15.828-5.586
				c2.04-76.236-3.789-188.811-43.761-317.497c-45.64-146.929-116.573-253-166.663-316.569
				C657.109,2471.01,597.102,2458.631,565.496,2481.681z"/>
			<g>
				
					<linearGradient id="SVGID_00000084507859479477604250000004702191198451782323_" gradientUnits="userSpaceOnUse" x1="-2495.7505" y1="2445.8638" x2="-2307.0801" y2="2683.2351" gradientTransform="matrix(-0.9506 0.3105 0.3105 0.9506 -2610.5376 395.1405)">
					<stop  offset="0" style="stop-color:#FFC444"/>
					<stop  offset="0.9964" style="stop-color:#F36F56"/>
				</linearGradient>
				<path style="fill:url(#SVGID_00000084507859479477604250000004702191198451782323_);" d="M506.672,2019.24
					c3.727-16.796-5.235-31.664-7.207-34.866c-8.253-13.404-10.277-15.185-13.983-17.381l-5.136-2.79c0,0-0.294-0.099-0.603-0.191
					c-3.251-0.958-14.134-0.688-16.308-0.096c-6.949,1.89-12.852,30.949-8.478,71.329c-0.206,1.56-0.402,3.132-0.587,4.717
					c-0.205,1.763-0.395,3.515-0.568,5.257c-1.425,14.312-10.286,26.829-23.233,33.092c-24.725,11.96-27.619,17.349-26.96,19.928
					c1.719,6.73,30.531,5.746,51.275,2.178c45.24-7.782,72.655,7.297,69.821-0.688c-1.233-3.476-25.538-15.51-36.226-39.041
					c2.661,5.859-2.245-12.672-3.368-19.009C487.87,2040.047,503.927,2031.614,506.672,2019.24z"/>
				<path style="fill:#26264F;" d="M494.284,1951.893c0.652,12.55-4.52,26.276-7.413,28.595c-0.372,0.301-2.467,2.151-4.27,5.216
					c-0.245,0.417-0.456,0.901-0.633,1.522c-2.311,8.058,10.775,16.668,8.544,20.342c-1.619,2.665-10.353-0.296-11.246,1.977
					c-0.842,2.14,6.497,6.069,5.548,8.629c-0.716,1.932-5.181,0.448-7.777,3.491c-1.294,1.516-0.828,2.636-2.04,7.117
					c-0.686,2.535-1.686,5.322-2.495,6.887c-3.929,7.606-16.061,10.976-18.587,8.159c-0.703-0.786-0.176-1.507-1.001-4.227
					c0,0-0.764-2.521-2.705-5.378c-2.774-4.08-9.073-6.76-15.507-10.874c-11.915-7.619-15.418-14.479-16.483-16.805
					c-0.379-0.828-0.622-1.455-0.796-1.908c-3.491-9.082-4.255-22.666-0.56-31.25c6.192-14.38,22.271-8.604,34.365-23.18
					c13.954-16.817,3.908-38.195,11.826-41.056C471.782,1905.999,493.078,1928.689,494.284,1951.893z"/>
				
					<linearGradient id="SVGID_00000105422640030859465890000015865672227050124219_" gradientUnits="userSpaceOnUse" x1="-2487.0793" y1="2438.9714" x2="-2298.4097" y2="2676.342" gradientTransform="matrix(-0.9506 0.3105 0.3105 0.9506 -2610.5376 395.1405)">
					<stop  offset="0" style="stop-color:#FFC444"/>
					<stop  offset="0.9964" style="stop-color:#F36F56"/>
				</linearGradient>
				<path style="fill:url(#SVGID_00000105422640030859465890000015865672227050124219_);" d="M485.839,2004.869
					c-3.309-4.055-8.493,0.214-8.223,5.682c0.271,5.469,5.882,10.86,10.961,9.497
					C493.657,2018.683,490.291,2010.327,485.839,2004.869z"/>
				<path style="fill:#26264F;" d="M482.839,1995.86l7.647,8.886c0,0,8.32,10.945,12.465,4.468c3.387-5.292,4.343-5.231,4.58-5.031
					c0.045,0.038,0.06,0.099,0.07,0.095c0.063-0.02-0.678-2.503-1.341-4.686c2.05,2.622,4.911,6.899,6.825,12.762
					c1.86,5.694,3.851,11.791,0.92,17.915c-0.171,0.355-3.412,6.88-10.035,8.782c0,0-2.604,0.748-13.857-0.596
					c0,0,11.693-9.512,11.763-11.622c0.189-5.737-7.9-8.385-14.427-19.767C484.932,2002.677,483.588,1998.645,482.839,1995.86z"/>
			</g>
			
				<linearGradient id="SVGID_00000121963700062322367480000001896406669318138527_" gradientUnits="userSpaceOnUse" x1="639.0359" y1="2026.8306" x2="284.1072" y2="2755.1038" gradientTransform="matrix(0.9999 0.0145 -0.0145 0.9999 114.5594 2.6561)">
				<stop  offset="0" style="stop-color:#AA80F9"/>
				<stop  offset="0.9964" style="stop-color:#6165D7"/>
			</linearGradient>
			<path style="fill:url(#SVGID_00000121963700062322367480000001896406669318138527_);" d="M631.19,2129.908
				c-19.935-16.937-52.062-39.688-96.435-54.317c-45.641-15.044-60.351-21.058-141.128,16.738
				c-28.824,13.487-6.458,141.599,9.482,194.979c24.326,81.469-2.54,90.168,26.34,203.059
				c17.243,67.398,33.161,89.084,50.169,103.61c39.296,33.559,90.069,33.727,107.822,33.786
				c59.588,0.198,78.867-27.922,142.188-33.571c4.614-0.411,12.971-1.018,20.516-6.8c20.224-15.502,15.359-53.598,12.347-73.634
				c-20.193-134.289-63.123-235.98-63.123-235.98C682.859,2238.673,660.341,2188.12,631.19,2129.908z"/>
			
				<linearGradient id="SVGID_00000005237892946832837030000014562080850576929951_" gradientUnits="userSpaceOnUse" x1="367.0985" y1="2185.9097" x2="690.2971" y2="2707.198" gradientTransform="matrix(0.9999 0.0145 -0.0145 0.9999 114.5594 2.6561)">
				<stop  offset="0" style="stop-color:#AA80F9"/>
				<stop  offset="0.9964" style="stop-color:#6165D7"/>
			</linearGradient>
			<path style="opacity:0.3;fill:url(#SVGID_00000005237892946832837030000014562080850576929951_);" d="M762.491,2513.76
				c-20.193-134.292-63.123-235.981-63.123-235.981c-13.844-32.796-31.978-73.72-54.642-120.381
				c-75.989,69.952-88.247,106.165-79.381,126.206c12.771,28.865,70.092,25.912,76.907,58.657
				c7.314,35.144-53.933,61.494-45.623,97.763c6.945,30.312,53.826,29.823,57.354,57.354c3.339,26.055-35.045,54.59-66.479,65.176
				c-50.19,16.904-95.508-7.623-106.888-14.339c-22.823-13.473-38.329-31.564-48.86-49.162
				c16.361,60.536,31.615,81.046,47.861,94.922c39.297,33.56,90.069,33.728,107.822,33.789
				c59.589,0.199,78.867-27.923,142.188-33.57c4.613-0.413,12.971-1.018,20.516-6.802
				C770.369,2571.888,765.503,2533.796,762.491,2513.76z"/>
			
				<linearGradient id="SVGID_00000086686909049376115500000000950413904491501228_" gradientUnits="userSpaceOnUse" x1="499.7083" y1="2515.1667" x2="575.1263" y2="3199.5095">
				<stop  offset="0" style="stop-color:#311944"/>
				<stop  offset="1" style="stop-color:#893976"/>
			</linearGradient>
			<path style="opacity:0.3;fill:url(#SVGID_00000086686909049376115500000000950413904491501228_);" d="M612.05,2934.186
				c15.393-53.742-41.298-81.707-31.657-163.874c4.426-37.714,17.913-44.97,13.036-67.038
				c-7.692-34.795-50.161-57.163-99.228-71.904c4.868,28.385,16.075,55.691,24.78,107.665c8.492,50.693,17.386,103.798,4.81,167.889
				c-10.628,54.168-26.885,66.716-33.248,121.299c-2.366,20.294-2.453,39.165-1.348,56.378
				c6.515-16.597,15.458-34.267,27.884-51.724C559.837,2972.812,599.774,2977.045,612.05,2934.186z"/>
			
				<linearGradient id="SVGID_00000115483843936759340300000002646628449759433891_" gradientUnits="userSpaceOnUse" x1="-191.1103" y1="1440.5066" x2="-263.2365" y2="1581.2833" gradientTransform="matrix(0.6652 -0.7467 0.7467 0.6652 47.5517 949.9679)">
				<stop  offset="0" style="stop-color:#FFC444"/>
				<stop  offset="0.9964" style="stop-color:#F36F56"/>
			</linearGradient>
			<path style="fill:url(#SVGID_00000115483843936759340300000002646628449759433891_);" d="M985.739,2101.862
				c0,0,6.206-10.166,4.268-18.353c-1.937-8.188-3.818-16.44-1.723-21.902c2.096-5.461,7.749,7.883,10.089,14.583
				c2.34,6.7,10.74,8.644,22.724-3.76c11.984-12.403,20.082-22.544,20.082-22.544s17.407,21.539-29.251,58.565
				c0,0-17.954,7.18-21.601,14.114c-3.647,6.933-2.293,2.573-2.293,2.573l-13.173-10.217L985.739,2101.862z"/>
			
				<linearGradient id="SVGID_00000169527148491311769280000012385427720935362957_" gradientUnits="userSpaceOnUse" x1="701.7033" y1="2154.4661" x2="346.7749" y2="2882.7383">
				<stop  offset="0" style="stop-color:#AA80F9"/>
				<stop  offset="0.9964" style="stop-color:#6165D7"/>
			</linearGradient>
			<path style="fill:url(#SVGID_00000169527148491311769280000012385427720935362957_);" d="M443.853,2093.61
				c26.612-41.248,126.127-21.768,177.464-11.719c88.111,17.248,106.676,44.581,172.442,53.574
				c43.073,5.89,108.284,4.172,194.205-38.506c2.791,14.51,5.581,29.019,8.371,43.529c-30.711,34.515-89.263,90.573-179.139,123.89
				c-33.753,12.512-195.696,72.546-303.028-11.719C459.942,2210.084,419.842,2130.825,443.853,2093.61z"/>
			
				<linearGradient id="SVGID_00000043421770650291625760000003074994775758992515_" gradientUnits="userSpaceOnUse" x1="707.6212" y1="1896.0808" x2="658.7759" y2="2047.0575" gradientTransform="matrix(0.9998 0.0191 -0.0191 0.9998 -83.9978 -44.0664)">
				<stop  offset="0" style="stop-color:#FFC444"/>
				<stop  offset="0.9964" style="stop-color:#F36F56"/>
			</linearGradient>
			<path style="fill:url(#SVGID_00000043421770650291625760000003074994775758992515_);" d="M582.461,1910.982
				c-1.935-3.94-1.667-21.004-4.77-24.002c-5.091-4.917-3.28-6.385-9.491-9.777c-3.186-1.739-6.261-4.35-6.825-8.077
				c-1.241-8.199,11.693-45.032,11.693-45.032s13.596,8.389,9.286,16.045c-4.31,7.656-7.25,15.969-0.394,20.679
				c6.856,4.709,11.355,12.194,13.977,20.486c2.623,8.291,2.581,33.472,2.581,33.472S587.097,1920.422,582.461,1910.982z"/>
		</g>
	</g>
</g>
</svg>
